<?xml version="1.0" standalone="no"?>
<!DOCTYPE svg PUBLIC "-//W3C//DTD SVG 20010904//EN"
 "http://www.w3.org/TR/2001/REC-SVG-20010904/DTD/svg10.dtd">
<svg version="1.0" xmlns="http://www.w3.org/2000/svg"
 width="1080.000000pt" height="1080.000000pt" viewBox="0 0 1080.000000 1080.000000"
 preserveAspectRatio="xMidYMid meet">
<metadata>
Created by potrace 1.14, written by Peter Selinger 2001-2017
</metadata>
<g transform="translate(0.000000,1080.000000) scale(0.100000,-0.100000)"
fill="#000000" stroke="none">
<path d="M1589 10796 c-4 -4 -29 -8 -119 -22 -77 -12 -284 -73 -365 -109 -16
-7 -45 -18 -62 -25 -18 -7 -33 -16 -33 -21 0 -5 -7 -9 -16 -9 -9 0 -39 -13
-66 -30 -26 -16 -52 -30 -57 -30 -4 0 -16 -9 -26 -20 -10 -11 -22 -20 -27 -20
-8 0 -34 -17 -87 -57 -104 -76 -237 -202 -311 -292 -19 -23 -43 -52 -53 -64
-10 -12 -26 -34 -35 -49 -9 -16 -20 -28 -25 -28 -4 0 -5 -5 -2 -10 3 -6 -1
-13 -9 -16 -9 -3 -16 -10 -16 -15 0 -5 -15 -32 -33 -61 -30 -49 -71 -130 -111
-218 -19 -43 -76 -215 -83 -250 -8 -39 -11 -55 -13 -55 -2 0 -6 -20 -14 -70
-4 -22 -10 -56 -14 -75 -10 -48 -8 -7665 1 -7715 4 -22 9 -49 11 -60 17 -87
69 -272 93 -325 8 -19 18 -44 23 -55 47 -122 199 -368 289 -465 27 -30 50 -58
51 -62 1 -17 216 -197 315 -263 104 -70 261 -154 315 -170 14 -4 30 -11 35
-15 34 -25 271 -87 415 -108 65 -10 7636 -9 7690 1 25 4 61 10 80 13 74 10
286 73 365 109 133 59 260 128 294 159 12 11 21 16 21 13 0 -4 8 0 18 7 9 8
55 44 102 81 79 63 163 143 236 226 47 53 144 187 144 198 0 5 4 11 8 13 12 5
64 95 100 173 18 39 37 78 43 88 26 47 97 287 114 387 4 19 9 51 13 70 9 44 9
7666 0 7700 -3 14 -9 47 -13 74 -3 28 -8 53 -11 58 -5 8 -10 29 -20 78 -6 34
-43 147 -61 190 -8 19 -19 44 -23 55 -23 55 -64 136 -71 141 -5 3 -7 9 -4 14
2 4 -4 19 -15 33 -11 14 -20 30 -20 36 0 6 -4 11 -10 11 -5 0 -10 7 -10 15 0
8 -4 15 -10 15 -5 0 -10 5 -10 11 0 37 -232 304 -340 392 -25 20 -52 43 -60
50 -65 61 -393 247 -434 247 -8 0 -17 4 -20 9 -3 4 -27 14 -53 21 -27 7 -52
16 -58 21 -5 4 -23 9 -40 12 -16 3 -37 8 -45 11 -8 3 -26 8 -40 11 -50 10
-126 26 -155 32 -32 7 -7669 16 -7676 9z"/>
</g>
</svg>
