<?xml version="1.0" standalone="no"?>
<!DOCTYPE svg PUBLIC "-//W3C//DTD SVG 20010904//EN"
 "http://www.w3.org/TR/2001/REC-SVG-20010904/DTD/svg10.dtd">
<svg version="1.0" xmlns="http://www.w3.org/2000/svg"
 width="632.000000pt" height="632.000000pt" viewBox="0 0 632.000000 632.000000"
 preserveAspectRatio="xMidYMid meet">
<metadata>
Created by potrace 1.14, written by Peter Selinger 2001-2017
</metadata>
<g transform="translate(0.000000,632.000000) scale(0.100000,-0.100000)"
fill="#000000" stroke="none">
<path d="M2570 5735 l0 -115 -115 0 -115 0 0 -115 0 -114 -117 -3 -118 -3 -3
-117 -3 -118 -114 0 -115 0 0 -350 0 -350 235 0 235 0 0 235 0 235 115 0 115
0 2 233 3 232 463 3 462 2 0 115 0 115 -115 0 -115 0 0 115 0 115 -115 0 -115
0 0 -115 0 -115 -115 0 -115 0 0 115 0 115 -120 0 -120 0 0 -115z"/>
<path d="M3613 5382 l-103 -3 0 -115 0 -114 233 2 232 3 0 115 0 115 -130 0
c-71 0 -176 -1 -232 -3z"/>
<path d="M2810 4795 l0 -115 115 0 115 0 0 115 0 115 -115 0 -115 0 0 -115z"/>
<path d="M3510 4565 l0 -115 115 0 115 0 0 115 0 115 -115 0 -115 0 0 -115z"/>
<path d="M2100 3165 l0 -115 -230 0 -229 0 -3 -117 -3 -118 -117 -3 -118 -3 0
-114 0 -115 -115 0 -115 0 0 -115 0 -115 -235 0 -235 0 0 -235 0 -235 -115 0
-115 0 0 -700 0 -700 -110 0 c-66 0 -110 -4 -110 -10 0 -5 44 -54 97 -108 207
-208 455 -325 748 -353 74 -7 772 -9 2145 -6 1835 3 2042 5 2105 19 172 40
314 99 435 180 l65 44 3 232 2 232 -120 0 -120 0 0 350 0 350 -115 0 -115 0 0
350 0 349 -116 3 -116 3 0 112 1 112 -117 3 -117 3 -3 116 -3 116 -229 8 -230
7 0 109 0 109 -235 0 -235 0 0 235 0 235 -235 0 -235 0 0 -115 0 -115 115 0
115 0 0 -120 0 -120 -230 0 -230 0 0 -115 0 -115 -237 2 -238 3 -2 110 -2 110
-230 3 -231 2 0 235 0 235 -120 0 -120 0 0 -115z"/>
</g>
</svg>
