<svg width="64" height="64" viewBox="0 0 64 64" fill="none" xmlns="http://www.w3.org/2000/svg">
<g clip-path="url(#clip0_1_48)">
<rect width="64" height="64" rx="12" fill="white"/>
<path d="M32 37C34.7614 37 37 34.7614 37 32C37 29.2386 34.7614 27 32 27C29.2386 27 27 29.2386 27 32C27 34.7614 29.2386 37 32 37Z" fill="#149EC9"/>
<path d="M32 46C47.464 46 60 39.732 60 32C60 24.268 47.464 18 32 18C16.536 18 4 24.268 4 32C4 39.732 16.536 46 32 46Z" stroke="#149EC9" stroke-width="4"/>
<path d="M21.1308 39.2442C29.1824 54.0981 40.5758 62.8962 46.5787 58.8954C52.5816 54.8945 50.9207 39.6097 42.8692 24.7558C34.8176 9.90189 23.4242 1.10377 17.4213 5.10463C11.4184 9.1055 13.0792 24.3903 21.1308 39.2442Z" stroke="#149EC9" stroke-width="4"/>
<path d="M21.1309 24.7558C13.0793 39.6097 11.4185 54.8945 17.4214 58.8953C23.4242 62.8962 34.8176 54.0981 42.8692 39.2442C50.9208 24.3903 52.5816 9.10554 46.5787 5.10468C40.5758 1.10382 29.1824 9.90193 21.1309 24.7558Z" stroke="#149EC9" stroke-width="4"/>
</g>
<defs>
<clipPath id="clip0_1_48">
<rect width="64" height="64" rx="12" fill="white"/>
</clipPath>
</defs>
</svg>
