<svg version="1.1" id="Layer_1" xmlns="http://www.w3.org/2000/svg" xmlns:xlink="http://www.w3.org/1999/xlink" x="0px" y="0px"
	 width="100%" viewBox="0 0 400 400" enable-background="new 0 0 400 400" xml:space="preserve">
<path fill="#212121" opacity="1.000000" stroke="none" 
	d="
M200.000000,401.000000 
	C133.354004,401.000000 67.208015,401.000000 1.031010,401.000000 
	C1.031010,267.729004 1.031010,134.458008 1.031010,1.093500 
	C134.229279,1.093500 267.458649,1.093500 400.843994,1.093500 
	C400.843994,134.333191 400.843994,267.666565 400.843994,401.000000 
	C334.124725,401.000000 267.312378,401.000000 200.000000,401.000000 
M219.922775,189.816513 
	C213.178314,190.650177 206.440536,192.133926 199.688232,192.203201 
	C172.697037,192.480133 145.701340,192.317535 118.707306,192.317551 
	C116.934799,192.317551 115.162285,192.317551 113.470276,192.317551 
	C113.470276,207.154663 113.470276,221.381805 113.470276,235.797455 
	C115.143204,235.797455 116.462250,235.795929 117.781303,235.797699 
	C146.274139,235.836029 174.768982,235.688782 203.258957,235.994156 
	C216.876541,236.140106 224.256454,242.856522 226.042679,256.347137 
	C227.154678,264.745605 227.523224,273.258301 227.891846,281.734283 
	C228.178329,288.321167 227.949127,294.930511 227.949127,301.624664 
	C246.478394,301.624664 264.550140,301.624664 283.597076,301.624664 
	C282.701447,285.230560 281.993439,269.132080 280.873077,253.062347 
	C280.297516,244.806564 277.593414,237.104507 272.504120,230.427765 
	C267.135132,223.384079 259.710632,219.315903 250.939468,216.491470 
	C252.153503,215.899750 252.719971,215.529343 253.341461,215.334351 
	C274.643402,208.650833 286.142578,193.622025 288.353882,171.968323 
	C290.792389,148.089828 284.396179,127.231270 263.336975,113.205711 
	C247.790070,102.851372 229.999252,100.269722 211.805862,100.165733 
	C180.313858,99.985733 148.820068,100.115784 117.327034,100.115791 
	C116.045105,100.115791 114.763184,100.115799 113.380013,100.115799 
	C113.380013,114.486717 113.380013,128.385773 113.380013,142.682449 
	C115.435822,142.682449 117.233017,142.682449 119.030205,142.682449 
	C145.857605,142.682465 172.686295,142.542633 199.511444,142.788757 
	C205.599045,142.844635 211.853577,143.577103 217.715622,145.164093 
	C227.872208,147.913681 233.726898,155.888931 234.170807,165.937714 
	C234.720764,178.387085 230.974594,184.911789 219.922775,189.816513 
M146.499969,301.887115 
	C158.579681,301.887115 170.659409,301.887115 182.960892,301.887115 
	C182.960892,294.798340 183.022614,288.325958 182.945663,281.855255 
	C182.843658,273.278778 178.595840,269.138641 169.886566,269.122620 
	C152.248230,269.090179 134.609772,269.106323 116.971397,269.127075 
	C115.715454,269.128571 114.459740,269.331177 113.379089,269.425079 
	C113.379089,280.415039 113.379089,290.998657 113.379089,301.887115 
	C124.261612,301.887115 134.880783,301.887115 146.499969,301.887115 
z"/>
<path fill="#FCFCFC" opacity="1.000000" stroke="none" 
	d="
M220.283279,189.657135 
	C230.974594,184.911789 234.720764,178.387085 234.170807,165.937714 
	C233.726898,155.888931 227.872208,147.913681 217.715622,145.164093 
	C211.853577,143.577103 205.599045,142.844635 199.511444,142.788757 
	C172.686295,142.542633 145.857605,142.682465 119.030205,142.682449 
	C117.233017,142.682449 115.435822,142.682449 113.380013,142.682449 
	C113.380013,128.385773 113.380013,114.486717 113.380013,100.115799 
	C114.763184,100.115799 116.045105,100.115791 117.327034,100.115791 
	C148.820068,100.115784 180.313858,99.985733 211.805862,100.165733 
	C229.999252,100.269722 247.790070,102.851372 263.336975,113.205711 
	C284.396179,127.231270 290.792389,148.089828 288.353882,171.968323 
	C286.142578,193.622025 274.643402,208.650833 253.341461,215.334351 
	C252.719971,215.529343 252.153503,215.899750 250.939468,216.491470 
	C259.710632,219.315903 267.135132,223.384079 272.504120,230.427765 
	C277.593414,237.104507 280.297516,244.806564 280.873077,253.062347 
	C281.993439,269.132080 282.701447,285.230560 283.597076,301.624664 
	C264.550140,301.624664 246.478394,301.624664 227.949127,301.624664 
	C227.949127,294.930511 228.178329,288.321167 227.891846,281.734283 
	C227.523224,273.258301 227.154678,264.745605 226.042679,256.347137 
	C224.256454,242.856522 216.876541,236.140106 203.258957,235.994156 
	C174.768982,235.688782 146.274139,235.836029 117.781303,235.797699 
	C116.462250,235.795929 115.143204,235.797455 113.470276,235.797455 
	C113.470276,221.381805 113.470276,207.154663 113.470276,192.317551 
	C115.162285,192.317551 116.934799,192.317551 118.707306,192.317551 
	C145.701340,192.317535 172.697037,192.480133 199.688232,192.203201 
	C206.440536,192.133926 213.178314,190.650177 220.283279,189.657135 
z"/>
<path fill="#FBFBFB" opacity="1.000000" stroke="none" 
	d="
M145.999954,301.887115 
	C134.880783,301.887115 124.261612,301.887115 113.379089,301.887115 
	C113.379089,290.998657 113.379089,280.415039 113.379089,269.425079 
	C114.459740,269.331177 115.715454,269.128571 116.971397,269.127075 
	C134.609772,269.106323 152.248230,269.090179 169.886566,269.122620 
	C178.595840,269.138641 182.843658,273.278778 182.945663,281.855255 
	C183.022614,288.325958 182.960892,294.798340 182.960892,301.887115 
	C170.659409,301.887115 158.579681,301.887115 145.999954,301.887115 
z"/>
</svg>